<mxfile host="app.diagrams.net" agent="Mozilla/5.0 (Windows NT 10.0; Win64; x64) AppleWebKit/537.36 (KHTML, like Gecko) Chrome/131.0.0.0 Safari/537.36" version="27.0.6">
  <diagram name="Trang-1" id="lbXGMcDbiQznmuQ6owUs">
    <mxGraphModel grid="1" page="1" gridSize="10" guides="1" tooltips="1" connect="1" arrows="1" fold="1" pageScale="1" pageWidth="827" pageHeight="1169" math="0" shadow="0">
      <root>
        <mxCell id="0" />
        <mxCell id="1" parent="0" />
        <mxCell id="3AwbGTsZ14r1RcXpaAYQ-2" value="&lt;p style=&quot;margin:0px;margin-top:4px;text-align:center;&quot;&gt;&lt;i&gt;&amp;lt;&amp;lt;boundary&amp;gt;&amp;gt;&lt;/i&gt;&lt;br&gt;&lt;b&gt;ThanhToanUI&lt;/b&gt;&lt;/p&gt;&lt;hr size=&quot;1&quot;&gt;&lt;p style=&quot;&quot; dir=&quot;auto&quot;&gt;&lt;span style=&quot;white-space: pre-wrap;&quot;&gt;+ kich nut &quot;Thanh Toan&quot;()&lt;br/&gt;+ hien thi form nhap thong tin()&lt;br/&gt;+ kich nut &quot;xac nhan thanh toan&quot;()&lt;br/&gt;+ hien thi thong bao dat hang thanh cong()&lt;/span&gt;&lt;/p&gt;&lt;p style=&quot;white-space: pre-wrap;&quot; dir=&quot;auto&quot;&gt;&lt;br&gt;&lt;/p&gt;&lt;p style=&quot;white-space: pre-wrap;&quot; dir=&quot;auto&quot;&gt;&lt;br&gt;&lt;/p&gt;&lt;p style=&quot;margin:0px;margin-left:4px;&quot;&gt;&lt;br&gt;&lt;/p&gt;" style="verticalAlign=top;align=left;overflow=fill;fontSize=12;fontFamily=Helvetica;html=1;rounded=0;shadow=0;comic=0;labelBackgroundColor=none;strokeWidth=1;fillColor=#F2CC8F;strokeColor=#E07A5F;fontColor=#393C56;" vertex="1" parent="1">
          <mxGeometry x="210" y="60" width="260" height="130" as="geometry" />
        </mxCell>
        <mxCell id="3AwbGTsZ14r1RcXpaAYQ-3" value="&lt;p style=&quot;margin:0px;margin-top:4px;text-align:center;&quot;&gt;&lt;i&gt;&amp;lt;&amp;lt;entity&amp;gt;&lt;/i&gt;&lt;br&gt;&lt;b&gt;Orders&lt;/b&gt;&lt;/p&gt;&lt;hr size=&quot;1&quot;&gt;&lt;p style=&quot;&quot; dir=&quot;auto&quot;&gt;&lt;span style=&quot;white-space: pre-wrap;&quot;&gt;+ ordersId&lt;br/&gt;+ address&lt;br/&gt;+ amount&lt;br/&gt;+ orderDate&lt;br/&gt;+ phone&lt;br/&gt;+ status&lt;br/&gt;+ userId&lt;br/&gt;+ ship&lt;/span&gt;&lt;/p&gt;&lt;hr size=&quot;1&quot;&gt;&lt;div&gt;&lt;div&gt;+ getOrdersId()&lt;/div&gt;&lt;div&gt;+ setOrdersId()&lt;/div&gt;&lt;div&gt;+ getAddress()&lt;/div&gt;&lt;div&gt;+ setAddress()&lt;/div&gt;&lt;div&gt;+ getAmount()&lt;/div&gt;&lt;div&gt;+ setAmount()&lt;/div&gt;&lt;div&gt;+ getOrderDate()&lt;/div&gt;&lt;div&gt;+ setOrderDate()&lt;/div&gt;&lt;div&gt;+ getPhone()&lt;/div&gt;&lt;div&gt;+ setPhone()&lt;/div&gt;&lt;div&gt;+ getStatus()&lt;/div&gt;&lt;div&gt;+ setStatus()&lt;/div&gt;&lt;div&gt;+ getUserId()&lt;/div&gt;&lt;div&gt;+ setUserId()&lt;/div&gt;&lt;div&gt;+ getShip()&lt;/div&gt;&lt;div&gt;+ setShip()&lt;/div&gt;&lt;div&gt;+ doc bang Orders()&lt;/div&gt;&lt;div&gt;+ getOrders()&lt;/div&gt;&lt;div&gt;+ updateOrderByOrderId()&lt;/div&gt;&lt;div&gt;+ getOrdersByOrderId()&lt;/div&gt;&lt;/div&gt;&lt;div&gt;&lt;br&gt;&lt;p style=&quot;white-space: pre-wrap;&quot; dir=&quot;auto&quot;&gt;&lt;br&gt;&lt;/p&gt;&lt;/div&gt;" style="verticalAlign=top;align=left;overflow=fill;fontSize=12;fontFamily=Helvetica;html=1;rounded=0;shadow=0;comic=0;labelBackgroundColor=none;strokeWidth=1;fillColor=#F2CC8F;strokeColor=#E07A5F;fontColor=#393C56;" vertex="1" parent="1">
          <mxGeometry x="420" y="250" width="160" height="490" as="geometry" />
        </mxCell>
        <mxCell id="3AwbGTsZ14r1RcXpaAYQ-4" value="&lt;p style=&quot;margin:0px;margin-top:4px;text-align:center;&quot;&gt;&lt;i&gt;&amp;lt;&amp;lt;Control&amp;gt;&amp;gt;&lt;/i&gt;&lt;br&gt;&lt;b&gt;ThanhToan&lt;/b&gt;&lt;b&gt;Controller&lt;/b&gt;&lt;/p&gt;&lt;hr size=&quot;1&quot;&gt;&lt;div&gt;&lt;div&gt;+ lay thong tin don hang()&lt;/div&gt;&lt;div&gt;+ luu thong tin don hang()&lt;/div&gt;&lt;/div&gt;&lt;div&gt;&lt;p style=&quot;white-space: pre-wrap;&quot; dir=&quot;auto&quot;&gt;&lt;br&gt;&lt;/p&gt;&lt;/div&gt;" style="verticalAlign=top;align=left;overflow=fill;fontSize=12;fontFamily=Helvetica;html=1;rounded=0;shadow=0;comic=0;labelBackgroundColor=none;strokeWidth=1;fillColor=#F2CC8F;strokeColor=#E07A5F;fontColor=#393C56;" vertex="1" parent="1">
          <mxGeometry x="570" y="60" width="240" height="90" as="geometry" />
        </mxCell>
        <mxCell id="3AwbGTsZ14r1RcXpaAYQ-5" value="&lt;b&gt;KhachHang&lt;/b&gt;" style="shape=umlActor;verticalLabelPosition=bottom;verticalAlign=top;html=1;outlineConnect=0;textShadow=0;labelBorderColor=none;labelBackgroundColor=none;fillColor=#F2CC8F;strokeColor=#E07A5F;fontColor=#393C56;" vertex="1" parent="1">
          <mxGeometry x="50" y="85" width="30" height="60" as="geometry" />
        </mxCell>
        <mxCell id="3AwbGTsZ14r1RcXpaAYQ-6" value="" style="endArrow=none;html=1;rounded=0;labelBackgroundColor=none;fontColor=default;strokeColor=#E07A5F;" edge="1" parent="1">
          <mxGeometry relative="1" as="geometry">
            <mxPoint x="90" y="111" as="sourcePoint" />
            <mxPoint x="210" y="110" as="targetPoint" />
          </mxGeometry>
        </mxCell>
        <mxCell id="3AwbGTsZ14r1RcXpaAYQ-7" value="1" style="text;html=1;align=center;verticalAlign=middle;resizable=0;points=[];autosize=1;strokeColor=none;fillColor=none;labelBackgroundColor=none;fontColor=#393C56;" vertex="1" parent="1">
          <mxGeometry x="540" y="85" width="30" height="30" as="geometry" />
        </mxCell>
        <mxCell id="3AwbGTsZ14r1RcXpaAYQ-8" value="" style="endArrow=none;html=1;rounded=0;labelBackgroundColor=none;fontColor=default;exitX=0.583;exitY=1;exitDx=0;exitDy=0;exitPerimeter=0;strokeColor=#E07A5F;" edge="1" parent="1" source="3AwbGTsZ14r1RcXpaAYQ-4">
          <mxGeometry relative="1" as="geometry">
            <mxPoint x="721" y="192" as="sourcePoint" />
            <mxPoint x="710" y="210" as="targetPoint" />
          </mxGeometry>
        </mxCell>
        <mxCell id="3AwbGTsZ14r1RcXpaAYQ-10" value="&lt;b style=&quot;forced-color-adjust: none; color: rgb(0, 0, 0); font-family: Helvetica; font-size: 12px; font-style: normal; font-variant-ligatures: normal; font-variant-caps: normal; letter-spacing: normal; orphans: 2; text-align: center; text-indent: 0px; text-transform: none; widows: 2; word-spacing: 0px; -webkit-text-stroke-width: 0px; white-space: nowrap; background-color: rgb(236, 236, 236); text-decoration-thickness: initial; text-decoration-style: initial; text-decoration-color: initial;&quot;&gt;(From Use Case View)&lt;/b&gt;" style="text;whiteSpace=wrap;html=1;labelBackgroundColor=none;fontColor=#393C56;" vertex="1" parent="1">
          <mxGeometry x="10" y="157" width="160" height="40" as="geometry" />
        </mxCell>
        <mxCell id="3AwbGTsZ14r1RcXpaAYQ-11" value="&lt;p style=&quot;margin:0px;margin-top:4px;text-align:center;&quot;&gt;&lt;i&gt;&amp;lt;&amp;lt;entity&amp;gt;&lt;/i&gt;&lt;br&gt;&lt;b&gt;Users&lt;/b&gt;&lt;/p&gt;&lt;hr size=&quot;1&quot;&gt;&lt;p style=&quot;&quot; dir=&quot;auto&quot;&gt;&lt;span style=&quot;white-space: pre-wrap;&quot;&gt;+ email&lt;br&gt;+ password&lt;br&gt;+ userId&lt;br&gt;+ address&lt;br&gt;+ gender&lt;br&gt;+ image&lt;br&gt;+ phone&lt;br&gt;+ registerDate&lt;br&gt;+ status&lt;br&gt;+ token&lt;br&gt;+ name&lt;/span&gt;&lt;/p&gt;&lt;hr size=&quot;1&quot;&gt;&lt;div&gt;&lt;div&gt;+ getEmail()&lt;/div&gt;&lt;div&gt;+ setEmail()&lt;/div&gt;&lt;div&gt;+ getPassword()&lt;/div&gt;&lt;div&gt;+ setPassword()&lt;/div&gt;&lt;div&gt;+ getUserId()&lt;/div&gt;&lt;div&gt;+ setUserId()&lt;/div&gt;&lt;div&gt;+ getAddress()&lt;/div&gt;&lt;div&gt;+ setAddress()&lt;/div&gt;&lt;div&gt;+ getGender()&lt;/div&gt;&lt;div&gt;+ setGender()&lt;/div&gt;&lt;div&gt;+ getPhone()&lt;/div&gt;&lt;div&gt;+ setPhone()&lt;/div&gt;&lt;div&gt;+ getImage()&lt;/div&gt;&lt;div&gt;+ setImage()&lt;/div&gt;&lt;div&gt;+ getRegisterDate()&lt;/div&gt;&lt;div&gt;+ setRegisterDate()&lt;/div&gt;&lt;div&gt;+ getStatus()&lt;/div&gt;&lt;div&gt;+ setStatus()&lt;/div&gt;&lt;div&gt;+ getToken()&lt;/div&gt;&lt;div&gt;+ setToken()&lt;/div&gt;&lt;div&gt;+ getName()&lt;/div&gt;&lt;div&gt;+ setName()&lt;/div&gt;&lt;div&gt;+ getUsers()&lt;/div&gt;&lt;div&gt;+ getUsersByUserId()&lt;/div&gt;&lt;div&gt;+ getUsersByName()&lt;/div&gt;&lt;div&gt;+ updateUsersByUserId()&lt;/div&gt;&lt;div&gt;+ deleteUsersByUserId()&lt;/div&gt;&lt;div&gt;&lt;span style=&quot;background-color: transparent;&quot;&gt;+ createUsers()&lt;/span&gt;&lt;span style=&quot;background-color: transparent; color: light-dark(rgb(0, 0, 0), rgb(255, 255, 255));&quot;&gt;&amp;nbsp;&amp;nbsp;&lt;/span&gt;&lt;/div&gt;&lt;/div&gt;&lt;div&gt;&lt;p style=&quot;white-space: pre-wrap;&quot; dir=&quot;auto&quot;&gt;&lt;br&gt;&lt;/p&gt;&lt;/div&gt;" style="verticalAlign=top;align=left;overflow=fill;fontSize=12;fontFamily=Helvetica;html=1;rounded=0;shadow=0;comic=0;labelBackgroundColor=none;strokeWidth=1;fillColor=#F2CC8F;strokeColor=#E07A5F;fontColor=#393C56;" vertex="1" parent="1">
          <mxGeometry x="180" y="230" width="160" height="640" as="geometry" />
        </mxCell>
        <mxCell id="3AwbGTsZ14r1RcXpaAYQ-12" value="&lt;p style=&quot;margin:0px;margin-top:4px;text-align:center;&quot;&gt;&lt;i&gt;&amp;lt;&amp;lt;entity&amp;gt;&lt;/i&gt;&lt;br&gt;&lt;b&gt;Products&lt;/b&gt;&lt;/p&gt;&lt;hr size=&quot;1&quot;&gt;&lt;p style=&quot;&quot; dir=&quot;auto&quot;&gt;&lt;span style=&quot;white-space: pre-wrap;&quot;&gt;+ productId  &lt;br&gt;+ description  &lt;br&gt;+ discount  &lt;br&gt;+ enteredDate  &lt;br&gt;+ image  &lt;br&gt;+ price  &lt;br&gt;+ name  &lt;br&gt;+ quantity  &lt;br&gt;+ sold  &lt;br&gt;+ status  &lt;br&gt;+ categoryId  &lt;br&gt;+ branch  &lt;br&gt;+ material&lt;/span&gt;&amp;nbsp;&amp;nbsp;&lt;/p&gt;&lt;hr size=&quot;1&quot;&gt;&lt;div&gt;&lt;div&gt;+ getProductId()&amp;nbsp;&amp;nbsp;&lt;/div&gt;&lt;div&gt;+ setProductId()&amp;nbsp;&amp;nbsp;&lt;/div&gt;&lt;div&gt;+ getDescription()&amp;nbsp;&amp;nbsp;&lt;/div&gt;&lt;div&gt;+ setDescription()&amp;nbsp;&amp;nbsp;&lt;/div&gt;&lt;div&gt;+ getDiscount()&amp;nbsp;&amp;nbsp;&lt;/div&gt;&lt;div&gt;+ setDiscount()&amp;nbsp;&amp;nbsp;&lt;/div&gt;&lt;div&gt;+ getEnteredDate()&amp;nbsp;&amp;nbsp;&lt;/div&gt;&lt;div&gt;+ setEnteredDate()&amp;nbsp;&amp;nbsp;&lt;/div&gt;&lt;div&gt;+ getImage()&amp;nbsp;&amp;nbsp;&lt;/div&gt;&lt;div&gt;+ setImage()&amp;nbsp;&amp;nbsp;&lt;/div&gt;&lt;div&gt;+ getPrice()&amp;nbsp;&amp;nbsp;&lt;/div&gt;&lt;div&gt;+ setPrice()&amp;nbsp;&amp;nbsp;&lt;/div&gt;&lt;div&gt;+ getName()&amp;nbsp;&amp;nbsp;&lt;/div&gt;&lt;div&gt;+ setName()&amp;nbsp;&amp;nbsp;&lt;/div&gt;&lt;div&gt;+ getQuantity()&amp;nbsp;&amp;nbsp;&lt;/div&gt;&lt;div&gt;+ setQuantity()&amp;nbsp;&amp;nbsp;&lt;/div&gt;&lt;div&gt;+ getSold()&amp;nbsp;&amp;nbsp;&lt;/div&gt;&lt;div&gt;+ setSold()&amp;nbsp;&amp;nbsp;&lt;/div&gt;&lt;div&gt;+ getStatus()&amp;nbsp;&amp;nbsp;&lt;/div&gt;&lt;div&gt;+ setStatus()&amp;nbsp;&amp;nbsp;&lt;/div&gt;&lt;div&gt;+ getCategoryId()&amp;nbsp;&amp;nbsp;&lt;/div&gt;&lt;div&gt;+ setCategoryId()&amp;nbsp;&amp;nbsp;&lt;/div&gt;&lt;div&gt;+ getBranch()&amp;nbsp;&amp;nbsp;&lt;/div&gt;&lt;div&gt;+ setBranch()&amp;nbsp;&amp;nbsp;&lt;/div&gt;&lt;div&gt;+ getMaterial()&amp;nbsp;&amp;nbsp;&lt;/div&gt;&lt;div&gt;+ setMaterial()&amp;nbsp;&amp;nbsp;&lt;/div&gt;&lt;div&gt;+ getProductsByCategoryId()&amp;nbsp;&amp;nbsp;&lt;/div&gt;&lt;div&gt;+ getProductsByOrderDetailId()&amp;nbsp;&amp;nbsp;&lt;/div&gt;&lt;div&gt;+ updateProductsByProductId()&amp;nbsp;&amp;nbsp;&lt;/div&gt;&lt;div&gt;+ getProductsByProductId()&amp;nbsp;&amp;nbsp;&lt;/div&gt;&lt;div&gt;+ getProductsByName()&amp;nbsp;&amp;nbsp;&lt;/div&gt;&lt;div&gt;+ getProducts()&amp;nbsp;&amp;nbsp;&lt;/div&gt;&lt;div&gt;+ deleteProductsByProductId()&amp;nbsp;&amp;nbsp;&lt;/div&gt;&lt;div&gt;+ createProducts()&amp;nbsp;&amp;nbsp;&lt;/div&gt;&lt;/div&gt;&lt;div&gt;&lt;br&gt;&lt;/div&gt;&lt;div&gt;&lt;br&gt;&lt;p style=&quot;white-space: pre-wrap;&quot; dir=&quot;auto&quot;&gt;&lt;br&gt;&lt;/p&gt;&lt;/div&gt;" style="verticalAlign=top;align=left;overflow=fill;fontSize=12;fontFamily=Helvetica;html=1;rounded=0;shadow=0;comic=0;labelBackgroundColor=none;strokeWidth=1;fillColor=#F2CC8F;strokeColor=#E07A5F;fontColor=#393C56;" vertex="1" parent="1">
          <mxGeometry x="640" y="210" width="170" height="750" as="geometry" />
        </mxCell>
        <mxCell id="3AwbGTsZ14r1RcXpaAYQ-15" value="1" style="text;html=1;align=center;verticalAlign=middle;resizable=0;points=[];autosize=1;strokeColor=none;fillColor=none;labelBackgroundColor=none;fontColor=#393C56;" vertex="1" parent="1">
          <mxGeometry x="170" y="840" width="30" height="30" as="geometry" />
        </mxCell>
        <mxCell id="3AwbGTsZ14r1RcXpaAYQ-16" value="1" style="text;html=1;align=center;verticalAlign=middle;resizable=0;points=[];autosize=1;strokeColor=none;fillColor=none;labelBackgroundColor=none;fontColor=#393C56;" vertex="1" parent="1">
          <mxGeometry x="540" y="130" width="30" height="30" as="geometry" />
        </mxCell>
        <mxCell id="3AwbGTsZ14r1RcXpaAYQ-17" value="1" style="text;html=1;align=center;verticalAlign=middle;resizable=0;points=[];autosize=1;strokeColor=none;fillColor=none;labelBackgroundColor=none;fontColor=#393C56;" vertex="1" parent="1">
          <mxGeometry x="570" y="157" width="30" height="30" as="geometry" />
        </mxCell>
        <mxCell id="3AwbGTsZ14r1RcXpaAYQ-19" value="1" style="text;html=1;align=center;verticalAlign=middle;resizable=0;points=[];autosize=1;strokeColor=none;fillColor=none;labelBackgroundColor=none;fontColor=#393C56;" vertex="1" parent="1">
          <mxGeometry x="700" y="150" width="30" height="30" as="geometry" />
        </mxCell>
        <mxCell id="3AwbGTsZ14r1RcXpaAYQ-22" value="n" style="text;html=1;align=center;verticalAlign=middle;resizable=0;points=[];autosize=1;strokeColor=none;fillColor=none;labelBackgroundColor=none;fontColor=#393C56;" vertex="1" parent="1">
          <mxGeometry x="710" y="180" width="30" height="30" as="geometry" />
        </mxCell>
        <mxCell id="3AwbGTsZ14r1RcXpaAYQ-23" value="" style="endArrow=none;html=1;rounded=0;labelBackgroundColor=none;fontColor=default;strokeColor=#E07A5F;" edge="1" parent="1">
          <mxGeometry relative="1" as="geometry">
            <mxPoint x="470" y="111" as="sourcePoint" />
            <mxPoint x="570" y="110" as="targetPoint" />
          </mxGeometry>
        </mxCell>
        <mxCell id="3AwbGTsZ14r1RcXpaAYQ-24" value="1" style="text;html=1;align=center;verticalAlign=middle;resizable=0;points=[];autosize=1;strokeColor=none;fillColor=none;labelBackgroundColor=none;fontColor=#393C56;" vertex="1" parent="1">
          <mxGeometry x="470" y="85" width="30" height="30" as="geometry" />
        </mxCell>
        <mxCell id="3AwbGTsZ14r1RcXpaAYQ-35" value="" style="endArrow=none;html=1;rounded=0;labelBackgroundColor=none;fontColor=default;entryX=0.16;entryY=1;entryDx=0;entryDy=0;entryPerimeter=0;exitX=0.917;exitY=-0.006;exitDx=0;exitDy=0;exitPerimeter=0;strokeColor=#E07A5F;" edge="1" parent="1" source="3AwbGTsZ14r1RcXpaAYQ-3" target="3AwbGTsZ14r1RcXpaAYQ-4">
          <mxGeometry relative="1" as="geometry">
            <mxPoint x="414" y="211" as="sourcePoint" />
            <mxPoint x="534" y="210" as="targetPoint" />
          </mxGeometry>
        </mxCell>
        <mxCell id="3AwbGTsZ14r1RcXpaAYQ-37" value="" style="endArrow=none;html=1;rounded=0;labelBackgroundColor=none;fontColor=default;exitX=1.008;exitY=0.078;exitDx=0;exitDy=0;exitPerimeter=0;strokeColor=#E07A5F;" edge="1" parent="1" source="3AwbGTsZ14r1RcXpaAYQ-11">
          <mxGeometry relative="1" as="geometry">
            <mxPoint x="410" y="210" as="sourcePoint" />
            <mxPoint x="574" y="150" as="targetPoint" />
          </mxGeometry>
        </mxCell>
        <mxCell id="3AwbGTsZ14r1RcXpaAYQ-38" value="n" style="text;html=1;align=center;verticalAlign=middle;resizable=0;points=[];autosize=1;strokeColor=none;fillColor=none;labelBackgroundColor=none;fontColor=#393C56;" vertex="1" parent="1">
          <mxGeometry x="540" y="220" width="30" height="30" as="geometry" />
        </mxCell>
        <mxCell id="3AwbGTsZ14r1RcXpaAYQ-39" value="n" style="text;html=1;align=center;verticalAlign=middle;resizable=0;points=[];autosize=1;strokeColor=none;fillColor=none;labelBackgroundColor=none;fontColor=#393C56;" vertex="1" parent="1">
          <mxGeometry x="340" y="240" width="30" height="30" as="geometry" />
        </mxCell>
        <mxCell id="3AwbGTsZ14r1RcXpaAYQ-40" value="" style="endArrow=none;html=1;rounded=0;labelBackgroundColor=none;fontColor=default;entryX=0.997;entryY=0.379;entryDx=0;entryDy=0;entryPerimeter=0;exitX=-0.002;exitY=0.446;exitDx=0;exitDy=0;exitPerimeter=0;strokeColor=#E07A5F;" edge="1" parent="1" source="3AwbGTsZ14r1RcXpaAYQ-12" target="3AwbGTsZ14r1RcXpaAYQ-3">
          <mxGeometry relative="1" as="geometry">
            <mxPoint x="580" y="543.5" as="sourcePoint" />
            <mxPoint x="621" y="446.5" as="targetPoint" />
          </mxGeometry>
        </mxCell>
        <mxCell id="3AwbGTsZ14r1RcXpaAYQ-41" value="n" style="text;html=1;align=center;verticalAlign=middle;resizable=0;points=[];autosize=1;strokeColor=none;fillColor=none;labelBackgroundColor=none;fontColor=#393C56;" vertex="1" parent="1">
          <mxGeometry x="580" y="410" width="30" height="30" as="geometry" />
        </mxCell>
        <mxCell id="3AwbGTsZ14r1RcXpaAYQ-42" value="1" style="text;html=1;align=center;verticalAlign=middle;resizable=0;points=[];autosize=1;strokeColor=none;fillColor=none;labelBackgroundColor=none;fontColor=#393C56;" vertex="1" parent="1">
          <mxGeometry x="610" y="535" width="30" height="30" as="geometry" />
        </mxCell>
      </root>
    </mxGraphModel>
  </diagram>
</mxfile>
